<svg width="26" height="18" viewBox="0 0 26 18" fill="none" xmlns="http://www.w3.org/2000/svg">
<path d="M6.8173 8.85897C8.56408 8.85897 9.98012 7.44292 9.98012 5.69615C9.98012 3.94937 8.56408 2.53333 6.8173 2.53333C5.07052 2.53333 3.65448 3.94937 3.65448 5.69615C3.65448 7.44292 5.07052 8.85897 6.8173 8.85897Z" stroke="#FDFDF5" stroke-linecap="round" stroke-linejoin="round"/>
<path d="M22.5769 3.59102V12.7981M13.4705 14.5295V15.6128C13.4709 15.7514 13.4438 15.8887 13.3909 16.0168C13.3381 16.1448 13.2604 16.2612 13.1624 16.3592C13.0644 16.4572 12.9481 16.5349 12.82 16.5877C12.6919 16.6406 12.5546 16.6676 12.416 16.6673H1.55449C1.41592 16.6676 1.27864 16.6406 1.15056 16.5877C1.02247 16.5349 0.906087 16.4572 0.808101 16.3592C0.710115 16.2612 0.632456 16.1448 0.579582 16.0168C0.526709 15.8887 0.499665 15.7514 0.500003 15.6128V14.5295C1.88398 10.0295 12.6622 10.8006 13.4705 14.5295ZM13.8064 6.58141V9.80705V6.58141ZM16.7301 3.59102V12.7981V3.59102ZM19.6538 0.5V15.8891V0.5ZM25.5 6.58141V9.80705V6.58141Z" stroke="#FDFDF5" stroke-linecap="round" stroke-linejoin="round"/>
</svg>
