<svg width="32" height="21" viewBox="0 0 32 21" fill="none" xmlns="http://www.w3.org/2000/svg">
<path d="M8.31496 10.8406C10.4758 10.8406 12.2276 9.08885 12.2276 6.92798C12.2276 4.7671 10.4758 3.01537 8.31496 3.01537C6.15408 3.01537 4.40234 4.7671 4.40234 6.92798C4.40234 9.08885 6.15408 10.8406 8.31496 10.8406Z" stroke="#233255" stroke-linecap="round" stroke-linejoin="round"/>
<path d="M27.8106 4.3238V15.7135M16.5454 17.8554V19.1955C16.5458 19.367 16.5123 19.5368 16.4469 19.6952C16.3815 19.8537 16.2854 19.9976 16.1642 20.1189C16.043 20.2401 15.899 20.3361 15.7406 20.4016C15.5821 20.467 15.4123 20.5004 15.2409 20.5H1.80447C1.63305 20.5004 1.46323 20.467 1.30478 20.4016C1.14632 20.3361 1.00236 20.2401 0.881141 20.1189C0.759926 19.9976 0.663856 19.8537 0.598448 19.6952C0.533041 19.5368 0.499586 19.367 0.500004 19.1955V17.8554C2.21207 12.2886 15.5454 13.2426 16.5454 17.8554ZM16.9609 8.0231V12.0134V8.0231ZM20.5777 4.3238V15.7135V4.3238ZM24.1945 0.5V19.5373V0.5ZM31.4266 8.0231V12.0134V8.0231Z" stroke="#233255" stroke-linecap="round" stroke-linejoin="round"/>
</svg>
